<svg xmlns="http://www.w3.org/2000/svg" viewBox="0 0 274.48 61.87"><defs><style>.cls-1{fill:#fff;}</style></defs><g id="Layer_2" data-name="Layer 2"><g id="Shape"><path class="cls-1" d="M103.49,13.5a18,18,0,1,0,18,18A18,18,0,0,0,103.49,13.5Zm0,32.62a14.63,14.63,0,1,1,14.62-14.63A14.63,14.63,0,0,1,103.49,46.12Z"/><path class="cls-1" d="M60.74,13.5A18,18,0,0,0,46.11,21V4.5H42.74v45h3.37v-18a14.63,14.63,0,0,1,29.25,0v18h3.38v-18A18,18,0,0,0,60.74,13.5Z"/><path class="cls-1" d="M146.23,13.5a18,18,0,0,0-18,18v18h3.38v-18a14.63,14.63,0,0,1,29.25,0v18h3.37v-18A18,18,0,0,0,146.23,13.5Z"/><path class="cls-1" d="M229.48,42h0V31.49a14.63,14.63,0,0,1,29.25,0v18h3.37v-18a18,18,0,0,0-36,0v18h3.38Z"/><path class="cls-1" d="M189,13.5a18,18,0,1,0,16.68,24.74H202a14.61,14.61,0,0,1-27.19-3.37h31.88a17.07,17.07,0,0,0,.33-3.38A18,18,0,0,0,189,13.5Zm-14.62,18a14.63,14.63,0,0,1,29.25,0Z"/><path class="cls-1" d="M18,13.5a18,18,0,0,0-18,18v27H3.38V42A18,18,0,1,0,18,13.5Zm0,32.62A14.63,14.63,0,1,1,32.63,31.49,14.63,14.63,0,0,1,18,46.12Z"/><rect class="cls-1" x="212.61" width="5.62" height="5.62"/><polygon class="cls-1" points="229.48 1.13 229.48 4.5 271.1 4.5 271.1 58.5 217.11 58.5 217.11 16.87 213.73 16.87 213.73 58.5 213.73 58.5 213.73 61.87 274.48 61.87 274.48 58.5 274.48 4.5 274.48 1.13 229.48 1.13"/></g></g></svg>