<?xml version="1.0" encoding="utf-8"?>
<!-- Generator: Adobe Illustrator 24.0.2, SVG Export Plug-In . SVG Version: 6.00 Build 0)  -->
<svg version="1.1" id="Background" xmlns="http://www.w3.org/2000/svg" xmlns:xlink="http://www.w3.org/1999/xlink" x="0px" y="0px"
	 viewBox="0 0 545 210" style="enable-background:new 0 0 545 210;" xml:space="preserve">
<style type="text/css">
	.st0{fill:#064994;}
	.st1{fill:#009ADE;}
</style>
<title>PhoneIn_logo</title>
<path class="st0" d="M153.2,78c-1.3,3.4-2.6,6.7-3.8,9.8c12.9,28.7,0,62.3-28.6,75.2c-14.6,6.6-31.4,6.6-46.1,0.2
	c-1,2.5-2.1,5-3.1,7.3c32.8,14.3,71-0.7,85.3-33.5C165.3,117.8,163.9,95.9,153.2,78z"/>
<path class="st0" d="M40.6,111c0-31.4,25.4-56.9,56.8-56.9c5.4,0,10.7,0.8,15.9,2.3c-1.2-3-2.5-6-3.7-9
	c-35.1-6.7-69.1,16.4-75.8,51.5c-3.4,17.9,0.9,36.3,11.8,50.9c1.2-3,2.4-6,3.5-8.9C43.5,131.9,40.6,121.5,40.6,111z"/>
<path class="st1" d="M91.8,74c-23.7,0-47.5,124-71.2,124h23.7c23.7,0,47.5-124,71.2-124H91.8z"/>
<path class="st1" d="M113.7,12H90c11.9,0,23.7,31,35.6,62c-11.9,31-23.7,62-35.6,62h23.7c11.9,0,23.7-31,35.6-62
	C137.4,43,125.6,12,113.7,12z"/>
<path class="st0" d="M226.4,94.7v14.4c0.1,11.5-9.2,20.9-20.7,21h-9.3v36.1c-0.1,1.6-1.3,2.8-2.9,2.9h-6.2c-1.6,0-2.9-1.3-2.9-2.9
	c0,0,0,0,0,0V76.9c0.1-1.6,1.3-2.8,2.9-2.9h18.4C217.1,74,226.4,83.3,226.4,94.7z M206.2,86h-9.8v33h9.6c5.2,0,9.4-4.2,9.4-9.4
	c0,0,0,0,0,0V95.2C215.4,90.1,211.3,86,206.2,86z"/>
<path class="st0" d="M279.4,82.9v83.2c0,1.6-1.3,2.9-2.9,2.9l0,0h-6.1c-1.6,0-2.9-1.3-3-2.9V130h-18v36.1c0,1.6-1.3,2.9-2.9,2.9
	c0,0,0,0,0,0h-6.2c-1.6,0-2.9-1.3-2.9-2.9c0,0,0,0,0,0V82.9c0-1.6,1.3-2.9,2.9-2.9l0,0h6.2c1.6,0,2.9,1.3,2.9,2.9l0,0V119h18V82.9
	c0.1-1.6,1.4-2.9,3-2.9h6.1C278.1,80,279.4,81.3,279.4,82.9L279.4,82.9z"/>
<path class="st0" d="M318.7,79.7c9.2,1.8,16.7,11.3,16.7,20.7v47.8c0,11.6-9.3,21-20.9,21.1c-2,0-4-0.3-5.9-0.8
	c-9.1-2.7-15.2-11.1-15.1-20.5v-47.7c0.1-11.7,9.6-21,21.3-20.9C316,79.2,317.4,79.4,318.7,79.7z M324.4,99.8c0-4.4-3-8.3-7.3-9.2
	c-5.1-1.2-10.3,2-11.4,7.2c-0.2,0.7-0.2,1.3-0.2,2v48.6c0,4.1,2.5,7.7,6.3,9.1c4.9,1.8,10.3-0.7,12.1-5.6c0.4-1.1,0.6-2.2,0.6-3.4
	V99.8z"/>
<path class="st0" d="M392.4,101.1v65c-0.1,1.6-1.3,2.8-2.9,2.9h-6.1c-1.6,0-2.9-1.3-3-2.9v-65.2c0-4.4-3-8.3-7.4-9.2
	c-6.3-1.2-11.6,3.3-11.6,9v65.5c-0.1,1.6-1.4,2.9-3,2.9h-5.1c-1.6,0-2.8-1.3-2.9-2.9v-65.5c0-12.7,11.8-22.8,25.3-20.3
	C384.9,82.2,392.4,91.7,392.4,101.1z"/>
<path class="st0" d="M417.4,91v27h16.1c1.6,0,2.9,1.3,2.9,2.9l0,0v6.2c0,1.6-1.3,2.9-2.9,2.9l0,0h-16.1v27h16.1
	c1.6,0,2.9,1.3,2.9,2.9c0,0,0,0,0,0v6.2c0,1.6-1.3,2.9-2.9,2.9l0,0h-21.4c-3.2,0-5.7-2.6-5.8-5.8V85.8c0-3.2,2.6-5.8,5.8-5.8h21.4
	c1.6,0,2.9,1.3,2.9,2.9l0,0v5.2c0,1.6-1.3,2.9-2.9,2.9l0,0H417.4z"/>
<path class="st1" d="M461.5,169h-6.2c-1.6,0-2.9-1.3-2.9-2.9c0,0,0,0,0,0V82.9c0-1.6,1.3-2.9,2.9-2.9h6.1c1.6,0,2.9,1.3,3,2.9v83.2
	C464.4,167.7,463.1,169,461.5,169z"/>
<path class="st1" d="M520.4,95.9v70.2c-0.1,1.6-1.3,2.8-2.9,2.9h-5.1c-1.6,0-2.9-1.3-3-2.9V95.7c0.1-4.4-3-8.3-7.3-9.2
	c-6.3-1.2-11.6,3.3-11.6,9v70.7c-0.1,1.6-1.4,2.9-3,2.9h-6.1c-1.6,0-2.8-1.3-2.9-2.9V95.4c0-12.7,11.8-22.8,25.3-20.3
	C512.9,76.9,520.4,86.5,520.4,95.9z"/>
</svg>
